<svg width="45" height="45" viewBox="0 0 45 45" fill="none" xmlns="http://www.w3.org/2000/svg">
<g clip-path="url(#clip0_326_676)">
<path d="M23.0845 25.9479C23.0845 26.2709 22.823 26.5324 22.5 26.5324H19.0521C18.729 26.5324 18.4676 26.2709 18.4676 25.9479C18.4676 25.6249 18.729 25.3634 19.0521 25.3634H22.5C22.823 25.3634 23.0845 25.6249 23.0845 25.9479ZM29.979 18.5317V25.3735C29.979 26.271 29.6296 27.1144 28.9948 27.7479L27.7466 28.9961C27.1119 29.6309 26.2684 29.9803 25.3722 29.9803H18.5304C16.5909 29.9803 15.0197 28.4103 15.0197 26.4708V18.533C15.0197 16.5934 16.5897 15.0222 18.5304 15.0222H26.4683C28.4078 15.0222 29.9778 16.5922 29.9778 18.533L29.979 18.5317ZM28.7321 25.958H27.1257C26.4809 25.958 25.9567 26.4821 25.9567 27.127V28.7334C26.3174 28.6341 26.6493 28.4418 26.9208 28.1703L28.169 26.9221C28.4405 26.6506 28.6328 26.3187 28.7321 25.958ZM28.81 18.5317C28.81 17.237 27.763 16.1899 26.4683 16.1899H18.5304C17.2357 16.1899 16.1887 17.237 16.1887 18.5317V26.4696C16.1887 27.7642 17.2357 28.8113 18.5304 28.8113H24.7877V27.127C24.7877 25.8385 25.836 24.7902 27.1244 24.7902H28.8088V18.533L28.81 18.5317ZM25.9466 21.9168H19.0521C18.729 21.9168 18.4676 22.1782 18.4676 22.5013C18.4676 22.8243 18.729 23.0858 19.0521 23.0858H25.9466C26.2697 23.0858 26.5311 22.8243 26.5311 22.5013C26.5311 22.1782 26.2697 21.9168 25.9466 21.9168ZM25.9466 18.4689H19.0521C18.729 18.4689 18.4676 18.7303 18.4676 19.0534C18.4676 19.3764 18.729 19.6378 19.0521 19.6378H25.9466C26.2697 19.6378 26.5311 19.3764 26.5311 19.0534C26.5311 18.7303 26.2697 18.4689 25.9466 18.4689Z" fill="white"/>
<path d="M22.5 44.9975C20.6573 44.9975 19.1589 43.4992 19.1589 41.6566C19.1589 40.093 20.2689 38.7192 21.7973 38.3912L21.8966 38.3698V36.8263H20.6434C20.3958 36.8263 20.1683 36.6704 20.0791 36.4392L19.3161 34.4583L19.2545 34.4419C18.2413 34.1667 17.2647 33.7619 16.3521 33.2391L16.2968 33.2076L14.3547 34.0699C14.2768 34.1038 14.1951 34.1214 14.1096 34.1214C13.9487 34.1214 13.7966 34.0586 13.6823 33.9442L12.7961 33.0581L6.09134 39.7624L6.14665 39.8479C6.49735 40.3884 6.68212 41.0143 6.68212 41.6591C6.68212 43.5018 5.1838 45 3.34106 45C1.49832 45 0 43.4992 0 41.6566C0 39.814 1.49832 38.3157 3.34106 38.3157C3.98464 38.3157 4.61061 38.5005 5.15112 38.8512L5.23659 38.9065L11.9413 32.2021L11.0552 31.316C10.8792 31.14 10.8302 30.8698 10.9307 30.6435L11.793 28.7029L11.7616 28.6476C11.2374 27.735 10.8327 26.7584 10.5574 25.7441L10.5411 25.6825L8.56006 24.9196C8.32877 24.8303 8.1729 24.6041 8.1729 24.3552V20.641C8.1729 20.3934 8.32877 20.1659 8.56006 20.0779L10.5411 19.315L10.5574 19.2534C10.8327 18.2403 11.2374 17.2637 11.7603 16.3499L11.7918 16.2946L10.9295 14.3527C10.8289 14.1264 10.8792 13.8562 11.0539 13.6802L11.9401 12.7941L5.23534 6.08974L5.14986 6.14505C4.60936 6.49573 3.98338 6.68049 3.3398 6.68049C1.49832 6.68175 0 5.18351 0 3.34087C0 1.49824 1.49832 0 3.34106 0C5.1838 0 6.68212 1.49824 6.68212 3.34087C6.68212 3.98441 6.49735 4.61036 6.14665 5.15083L6.09134 5.2363L12.7961 11.9407L13.6823 11.0545C13.7966 10.9402 13.9487 10.8773 14.1096 10.8773C14.1939 10.8773 14.2768 10.8949 14.3547 10.9289L16.2968 11.7911L16.3521 11.7597C17.2647 11.2355 18.2413 10.8308 19.2545 10.5568L19.3161 10.5405L20.0791 8.55832C20.1683 8.32705 20.3946 8.17119 20.6434 8.17119H21.8966V6.6277L21.7973 6.60634C20.2689 6.27702 19.1589 4.90447 19.1589 3.34087C19.1589 1.49824 20.6573 0 22.5 0C24.3427 0 25.8411 1.49824 25.8411 3.34087C25.8411 4.90447 24.7311 6.27828 23.2027 6.60634L23.1034 6.6277V8.17119H24.3566C24.6042 8.17119 24.8317 8.32705 24.9209 8.55832L25.6839 10.5405L25.7455 10.5568C26.7587 10.8321 27.7353 11.2368 28.6479 11.7597L28.7032 11.7911L30.6453 10.9289C30.7232 10.8949 30.8049 10.8773 30.8904 10.8773C31.0525 10.8773 31.2034 10.9402 31.3177 11.0545L32.2039 11.9407L38.9087 5.2363L38.8534 5.15083C38.5027 4.61036 38.3179 3.98441 38.3179 3.34087C38.3179 1.49824 39.8162 0 41.6589 0C43.5017 0 45 1.49824 45 3.34087C45 5.18351 43.5017 6.68175 41.6589 6.68175C41.0154 6.68175 40.3894 6.49698 39.8489 6.14631L39.7634 6.091L33.0587 12.7954L33.9448 13.6815C34.1208 13.8575 34.1698 14.1277 34.0693 14.3539L33.207 16.2946L33.2384 16.3499C33.7626 17.2624 34.1673 18.2403 34.4426 19.2534L34.4589 19.315L36.4399 20.0779C36.6712 20.1672 36.8271 20.3934 36.8271 20.641V24.3552C36.8271 24.6028 36.6712 24.8303 36.4399 24.9183L34.4589 25.6812L34.4426 25.7428C34.1673 26.7559 33.7626 27.7325 33.2384 28.645L33.207 28.7004L34.0693 30.6423C34.1698 30.8685 34.1195 31.1388 33.9448 31.3147L33.0587 32.2009L39.7634 38.9052L39.8489 38.8499C40.3894 38.4992 41.0154 38.3145 41.6589 38.3145C43.5017 38.3145 45 39.8127 45 41.6554C45 43.498 43.5017 44.9962 41.6589 44.9962C39.8162 44.9962 38.3179 43.498 38.3179 41.6554C38.3179 41.0118 38.5027 40.3859 38.8534 39.8441L38.9087 39.7587L32.2039 33.0543L31.3177 33.9404C31.2034 34.0548 31.0513 34.1176 30.8904 34.1176C30.8061 34.1176 30.7232 34.1001 30.6453 34.0661L28.7045 33.2039L28.6492 33.2353C27.7366 33.7594 26.7599 34.1642 25.7455 34.4394L25.6839 34.4558L24.9209 36.4367C24.8317 36.6679 24.6054 36.8238 24.3578 36.8238H23.1046V38.3673L23.2039 38.3886C24.7324 38.7179 25.8423 40.0905 25.8423 41.6541C25.8423 43.4967 24.344 44.995 22.5013 44.995L22.5 44.9975ZM41.6589 39.5236C40.4824 39.5236 39.5258 40.4801 39.5258 41.6566C39.5258 42.8331 40.4824 43.7896 41.6589 43.7896C42.8355 43.7896 43.792 42.8331 43.792 41.6566C43.792 40.4801 42.8355 39.5236 41.6589 39.5236ZM22.5 39.5236C21.3235 39.5236 20.3669 40.4801 20.3669 41.6566C20.3669 42.8331 21.3235 43.7896 22.5 43.7896C23.6765 43.7896 24.6331 42.8331 24.6331 41.6566C24.6331 40.4801 23.6765 39.5236 22.5 39.5236ZM3.34106 39.5236C2.16453 39.5236 1.20796 40.4801 1.20796 41.6566C1.20796 42.8331 2.16453 43.7896 3.34106 43.7896C4.5176 43.7896 5.47416 42.8331 5.47416 41.6566C5.47416 40.4801 4.5176 39.5236 3.34106 39.5236ZM16.3383 31.9218C16.4501 31.9218 16.5595 31.9532 16.655 32.0111C17.6644 32.632 18.7592 33.0857 19.9081 33.3597C20.1017 33.4062 20.2601 33.5445 20.3317 33.7305L21.0582 35.6171H23.943L24.6696 33.7305C24.7412 33.5445 24.8996 33.4062 25.0932 33.3597C26.242 33.0857 27.3369 32.632 28.3462 32.0111C28.4418 31.952 28.5511 31.9218 28.663 31.9218C28.7485 31.9218 28.8302 31.9394 28.9081 31.9734L30.7571 32.7941L32.7972 30.7541L31.9764 28.9052C31.8959 28.723 31.9098 28.5131 32.0141 28.3434C32.6351 27.3341 33.0888 26.2393 33.3629 25.0905C33.4094 24.8969 33.5476 24.7386 33.7337 24.6669L35.6204 23.9404V21.0558L33.7337 20.3293C33.5476 20.2577 33.4094 20.0993 33.3629 19.9057C33.0888 18.7557 32.6351 17.6609 32.0141 16.6528C31.9098 16.4832 31.8959 16.2733 31.9764 16.091L32.7972 14.2421L30.7571 12.2021L28.9081 13.0241C28.8302 13.0581 28.7485 13.0757 28.663 13.0757C28.5511 13.0757 28.4418 13.0442 28.3462 12.9864C27.3369 12.3655 26.242 11.9118 25.0932 11.6378C24.8996 11.5913 24.7412 11.453 24.6696 11.267L23.943 9.38034H21.0582L20.3317 11.267C20.2601 11.453 20.1017 11.5913 19.9081 11.6378C18.758 11.9118 17.6644 12.3655 16.655 12.9864C16.5595 13.0455 16.4501 13.0757 16.3383 13.0757C16.2528 13.0757 16.1711 13.0581 16.0932 13.0241L14.2441 12.2021L12.204 14.2421L13.0249 16.091C13.1053 16.2733 13.0915 16.4832 12.9872 16.6528C12.3662 17.6609 11.9124 18.7557 11.6384 19.9057C11.5919 20.0993 11.4536 20.2577 11.2676 20.3293L9.38087 21.0558V23.9404L11.2676 24.6669C11.4536 24.7386 11.5919 24.8969 11.6384 25.0905C11.9124 26.2406 12.3662 27.3353 12.9872 28.3434C13.0915 28.5131 13.1053 28.723 13.0249 28.9052L12.204 30.7541L14.2441 32.7941L16.0932 31.9721C16.1711 31.9382 16.2528 31.9206 16.3383 31.9206V31.9218ZM41.6589 1.20789C40.4824 1.20789 39.5258 2.1644 39.5258 3.34087C39.5258 4.51735 40.4824 5.47386 41.6589 5.47386C42.8355 5.47386 43.792 4.51735 43.792 3.34087C43.792 2.1644 42.8355 1.20789 41.6589 1.20789ZM22.5 1.20789C21.3235 1.20789 20.3669 2.1644 20.3669 3.34087C20.3669 4.51735 21.3235 5.47386 22.5 5.47386C23.6765 5.47386 24.6331 4.51735 24.6331 3.34087C24.6331 2.1644 23.6765 1.20789 22.5 1.20789ZM3.34106 1.20789C2.16453 1.20789 1.20796 2.1644 1.20796 3.34087C1.20796 4.51735 2.16453 5.47386 3.34106 5.47386C4.5176 5.47386 5.47416 4.51735 5.47416 3.34087C5.47416 2.1644 4.5176 1.20789 3.34106 1.20789Z" fill="white"/>
</g>
<defs>
<clipPath id="clip0_326_676">
<rect width="45" height="45" fill="white"/>
</clipPath>
</defs>
</svg>
