<svg xmlns="http://www.w3.org/2000/svg" xmlns:xlink="http://www.w3.org/1999/xlink" width="199" height="50" viewBox="0 0 199 50">
  <defs>
    <clipPath id="clip-path">
      <rect id="Rectangle_1" data-name="Rectangle 1" width="200" height="50"/>
    </clipPath>
    <clipPath id="clip-path-2">
      <rect id="Rectangle_2" data-name="Rectangle 2" width="38" height="38" fill="#fff"/>
    </clipPath>
    <clipPath id="clip-Custom_Size_1">
      <rect width="199" height="50"/>
    </clipPath>
  </defs>
  <g id="Custom_Size_1" data-name="Custom Size – 1" clip-path="url(#clip-Custom_Size_1)">
    <g id="Custom_Size_1-2" data-name="Custom Size – 1" transform="translate(-1)" clip-path="url(#clip-path)">
      <g id="Component_1_1" data-name="Component 1 – 1" transform="translate(52 6)">
        <text id="Centralized_Content_Management" data-name="Centralized Content  Management" transform="translate(0 15)" fill="#fff" font-size="16" font-family="HelveticaNeue, Helvetica Neue" letter-spacing="0.005em"><tspan x="0" y="0">Centralized Content </tspan><tspan x="0" y="21">Management</tspan></text>
      </g>
      <g id="ccm-icon" transform="translate(4 6)" clip-path="url(#clip-path-2)">
        <path id="Path_1" data-name="Path 1" d="M21.83,24.248a.493.493,0,0,1-.494.494H18.425a.494.494,0,0,1,0-.987h2.912A.493.493,0,0,1,21.83,24.248Zm5.822-6.263v5.778a2.814,2.814,0,0,1-.831,2.005l-1.054,1.054a2.817,2.817,0,0,1-2.005.831H17.984A2.963,2.963,0,0,1,15.02,24.69v-6.7a2.963,2.963,0,0,1,2.965-2.965h6.7a2.962,2.962,0,0,1,2.964,2.965ZM26.6,24.257H25.243a.988.988,0,0,0-.987.987V26.6a1.842,1.842,0,0,0,.814-.476l1.054-1.054A1.842,1.842,0,0,0,26.6,24.257Zm.066-6.271a1.976,1.976,0,0,0-1.977-1.978h-6.7a1.976,1.976,0,0,0-1.977,1.978v6.7a1.976,1.976,0,0,0,1.977,1.977h5.284V25.244a1.976,1.976,0,0,1,1.973-1.973h1.422V17.987Zm-2.418,2.859H18.425a.494.494,0,0,0,0,.987h5.822a.494.494,0,0,0,0-.987Zm0-2.912H18.425a.494.494,0,1,0,0,.987h5.822a.494.494,0,1,0,0-.987Z" transform="translate(-2.336 -2.337)" fill="#fff"/>
        <path id="Path_2" data-name="Path 2" d="M19,38a2.821,2.821,0,0,1-.593-5.579l.084-.018V31.1H17.432a.515.515,0,0,1-.477-.327L16.311,29.1l-.052-.014a10.439,10.439,0,0,1-2.451-1.016l-.047-.027-1.64.728a.514.514,0,0,1-.207.043.507.507,0,0,1-.361-.15l-.748-.748L5.144,33.577l.047.072a2.824,2.824,0,1,1-.841-.842l.072.047,5.662-5.661-.748-.748a.513.513,0,0,1-.105-.568l.728-1.639-.027-.047a10.386,10.386,0,0,1-1.017-2.452L8.9,21.687l-1.673-.644a.514.514,0,0,1-.327-.477V17.43a.512.512,0,0,1,.327-.476L8.9,16.31l.014-.052a10.465,10.465,0,0,1,1.016-2.452l.027-.047-.728-1.64a.515.515,0,0,1,.105-.568l.748-.748L4.421,5.142l-.072.047a2.819,2.819,0,1,1,.842-.84l-.047.072,5.662,5.661.748-.748a.508.508,0,0,1,.361-.15.516.516,0,0,1,.207.044l1.64.728.047-.027a10.347,10.347,0,0,1,2.451-1.016l.052-.014.644-1.674a.514.514,0,0,1,.477-.327H18.49V5.6l-.084-.018a2.821,2.821,0,1,1,1.187,0L19.51,5.6V6.9h1.058a.515.515,0,0,1,.477.327L21.689,8.9l.052.014A10.439,10.439,0,0,1,24.192,9.93l.047.027,1.64-.728a.512.512,0,0,1,.207-.044.506.506,0,0,1,.361.15l.748.748,5.662-5.661L32.81,4.35a2.826,2.826,0,1,1,.841.841l-.072-.047-5.662,5.661.748.748a.513.513,0,0,1,.105.568l-.728,1.639.027.047a10.4,10.4,0,0,1,1.017,2.452l.014.052,1.673.644a.513.513,0,0,1,.327.476v3.136a.512.512,0,0,1-.327.476l-1.673.644-.014.052a10.4,10.4,0,0,1-1.017,2.451l-.027.047.728,1.64a.515.515,0,0,1-.105.568l-.748.748,5.662,5.661.072-.047a2.822,2.822,0,1,1-.841.84l.047-.072-5.662-5.661-.748.748a.507.507,0,0,1-.361.15.516.516,0,0,1-.207-.043l-1.639-.728-.047.027a10.386,10.386,0,0,1-2.452,1.017l-.052.014-.644,1.673a.513.513,0,0,1-.476.327H19.511v1.3l.084.018A2.821,2.821,0,0,1,19,38Zm16.179-4.622a1.8,1.8,0,1,0,1.8,1.8A1.8,1.8,0,0,0,35.179,33.375ZM19,33.375a1.8,1.8,0,1,0,1.8,1.8A1.8,1.8,0,0,0,19,33.375Zm-16.179,0a1.8,1.8,0,1,0,1.8,1.8A1.8,1.8,0,0,0,2.821,33.375ZM13.8,26.956a.516.516,0,0,1,.267.075,9.4,9.4,0,0,0,2.747,1.139.511.511,0,0,1,.358.313l.613,1.593h2.436l.614-1.593a.511.511,0,0,1,.358-.313,9.4,9.4,0,0,0,2.747-1.139.507.507,0,0,1,.268-.075.512.512,0,0,1,.207.044l1.561.693L27.7,25.97,27,24.409a.511.511,0,0,1,.032-.474,9.4,9.4,0,0,0,1.139-2.747.511.511,0,0,1,.313-.358l1.593-.613V17.78l-1.593-.613a.511.511,0,0,1-.313-.358,9.372,9.372,0,0,0-1.139-2.747A.511.511,0,0,1,27,13.588l.693-1.561L25.973,10.3,24.411,11a.513.513,0,0,1-.474-.032A9.4,9.4,0,0,0,21.19,9.827a.511.511,0,0,1-.358-.313l-.614-1.593H17.782l-.613,1.593a.511.511,0,0,1-.358.313,9.385,9.385,0,0,0-2.747,1.139.507.507,0,0,1-.267.075A.512.512,0,0,1,13.59,11L12.028,10.3l-1.723,1.723L11,13.588a.511.511,0,0,1-.032.474,9.37,9.37,0,0,0-1.139,2.747.511.511,0,0,1-.313.358l-1.593.613v2.436l1.593.613a.511.511,0,0,1,.313.358,9.369,9.369,0,0,0,1.139,2.747.511.511,0,0,1,.032.474l-.693,1.561,1.723,1.723L13.59,27a.514.514,0,0,1,.207-.043ZM35.179,1.02a1.8,1.8,0,1,0,1.8,1.8A1.8,1.8,0,0,0,35.179,1.02ZM19,1.02a1.8,1.8,0,1,0,1.8,1.8A1.8,1.8,0,0,0,19,1.02Zm-16.179,0a1.8,1.8,0,1,0,1.8,1.8A1.8,1.8,0,0,0,2.821,1.02Z" transform="translate(0)" fill="#fff"/>
      </g>
    </g>
  </g>
</svg>
